<?xml version="1.0" encoding="UTF-8"?><svg id="Layer_1" xmlns="http://www.w3.org/2000/svg" viewBox="0 0 48 48"><path d="M39,6h-9v-1c0-1.654-1.346-3-3-3h-7c-1.654,0-3,1.346-3,3v1H9c-1.654,0-3,1.346-3,3v1c0,1.654,1.346,3,3,3h30c1.654,0,3-1.346,3-3v-1c0-1.654-1.346-3-3-3Zm-20,0v-1c0-.551,.449-1,1-1h7c.551,0,1,.449,1,1v1h-9Z"/><path d="M39,15H9c-.322,0-.636-.037-.941-.095l.82,26.251c.085,2.716,2.28,4.844,4.998,4.844h20.246c2.718,0,4.913-2.127,4.998-4.844l.82-26.251c-.305,.059-.619,.095-.941,.095Zm-21.472,25h-.028c-.54,0-.984-.429-.999-.972l-.5-18c-.016-.552,.419-1.012,.972-1.027,.562-.014,1.012,.42,1.027,.972l.5,18c.016,.552-.419,1.012-.972,1.027Zm7.472-1c0,.552-.448,1-1,1s-1-.448-1-1V21c0-.552,.448-1,1-1s1,.448,1,1v18Zm6.5,.028c-.015,.542-.459,.972-.999,.972h-.028c-.552-.016-.987-.476-.972-1.028l.5-18c.015-.552,.45-1.01,1.027-.972,.552,.015,.987,.475,.972,1.027l-.5,18Z"/></svg>